<svg xmlns="http://www.w3.org/2000/svg" viewBox="0 0 300 300" width="300" height="300">
  <defs>
    <linearGradient id="cyberGrad" x1="0%" y1="0%" x2="100%" y2="100%">
      <stop offset="0%" stop-color="#00f5ff" />
      <stop offset="100%" stop-color="#ff4b8b" />
    </linearGradient>
  </defs>
  <rect width="300" height="300" rx="16" fill="#090d16" stroke="rgba(0, 245, 255, 0.4)" stroke-width="2"/>
  
  <!-- Outer Finder 1 (Top Left) -->
  <rect x="25" y="25" width="60" height="60" rx="8" fill="none" stroke="#00f5ff" stroke-width="6"/>
  <rect x="40" y="40" width="30" height="30" rx="4" fill="#00f5ff"/>

  <!-- Outer Finder 2 (Top Right) -->
  <rect x="215" y="25" width="60" height="60" rx="8" fill="none" stroke="#00f5ff" stroke-width="6"/>
  <rect x="230" y="40" width="30" height="30" rx="4" fill="#00f5ff"/>

  <!-- Outer Finder 3 (Bottom Left) -->
  <rect x="25" y="215" width="60" height="60" rx="8" fill="none" stroke="#00f5ff" stroke-width="6"/>
  <rect x="40" y="230" width="30" height="30" rx="4" fill="#00f5ff"/>

  <!-- Matrix Pattern Dots -->
  <g fill="#00f5ff" opacity="0.85">
    <rect x="100" y="30" width="12" height="12" rx="2"/>
    <rect x="120" y="30" width="12" height="12" rx="2"/>
    <rect x="160" y="30" width="12" height="12" rx="2"/>
    <rect x="180" y="30" width="12" height="12" rx="2"/>
    <rect x="100" y="50" width="12" height="12" rx="2"/>
    <rect x="140" y="50" width="12" height="12" rx="2"/>
    <rect x="180" y="50" width="12" height="12" rx="2"/>
    <rect x="120" y="70" width="12" height="12" rx="2"/>
    <rect x="140" y="70" width="12" height="12" rx="2"/>
    <rect x="160" y="70" width="12" height="12" rx="2"/>

    <rect x="30" y="100" width="12" height="12" rx="2"/>
    <rect x="50" y="100" width="12" height="12" rx="2"/>
    <rect x="70" y="100" width="12" height="12" rx="2"/>
    <rect x="90" y="100" width="12" height="12" rx="2"/>
    <rect x="110" y="100" width="12" height="12" rx="2"/>
    <rect x="170" y="100" width="12" height="12" rx="2"/>
    <rect x="210" y="100" width="12" height="12" rx="2"/>
    <rect x="250" y="100" width="12" height="12" rx="2"/>

    <rect x="30" y="120" width="12" height="12" rx="2"/>
    <rect x="70" y="120" width="12" height="12" rx="2"/>
    <rect x="130" y="120" width="12" height="12" rx="2"/>
    <rect x="150" y="120" width="12" height="12" rx="2"/>
    <rect x="230" y="120" width="12" height="12" rx="2"/>
    <rect x="250" y="120" width="12" height="12" rx="2"/>

    <rect x="50" y="140" width="12" height="12" rx="2"/>
    <rect x="90" y="140" width="12" height="12" rx="2"/>
    <rect x="110" y="140" width="12" height="12" rx="2"/>
    <rect x="170" y="140" width="12" height="12" rx="2"/>
    <rect x="190" y="140" width="12" height="12" rx="2"/>
    <rect x="230" y="140" width="12" height="12" rx="2"/>

    <rect x="30" y="160" width="12" height="12" rx="2"/>
    <rect x="70" y="160" width="12" height="12" rx="2"/>
    <rect x="110" y="160" width="12" height="12" rx="2"/>
    <rect x="130" y="160" width="12" height="12" rx="2"/>
    <rect x="170" y="160" width="12" height="12" rx="2"/>
    <rect x="210" y="160" width="12" height="12" rx="2"/>
    <rect x="250" y="160" width="12" height="12" rx="2"/>

    <rect x="100" y="180" width="12" height="12" rx="2"/>
    <rect x="140" y="180" width="12" height="12" rx="2"/>
    <rect x="180" y="180" width="12" height="12" rx="2"/>
    <rect x="220" y="180" width="12" height="12" rx="2"/>

    <rect x="100" y="210" width="12" height="12" rx="2"/>
    <rect x="120" y="210" width="12" height="12" rx="2"/>
    <rect x="160" y="210" width="12" height="12" rx="2"/>
    <rect x="200" y="210" width="12" height="12" rx="2"/>
    <rect x="240" y="210" width="12" height="12" rx="2"/>

    <rect x="100" y="235" width="12" height="12" rx="2"/>
    <rect x="140" y="235" width="12" height="12" rx="2"/>
    <rect x="180" y="235" width="12" height="12" rx="2"/>
    <rect x="220" y="235" width="12" height="12" rx="2"/>
    <rect x="250" y="235" width="12" height="12" rx="2"/>

    <rect x="120" y="255" width="12" height="12" rx="2"/>
    <rect x="160" y="255" width="12" height="12" rx="2"/>
    <rect x="200" y="255" width="12" height="12" rx="2"/>
    <rect x="240" y="255" width="12" height="12" rx="2"/>
  </g>

  <!-- Center Badge: ₹40 -->
  <rect x="100" y="115" width="100" height="70" rx="12" fill="#090d16" stroke="url(#cyberGrad)" stroke-width="2.5"/>
  <text x="150" y="145" fill="#00f5ff" font-family="monospace" font-size="22" font-weight="900" text-anchor="middle">₹40</text>
  <text x="150" y="168" fill="#ffffff" font-family="monospace" font-size="9" font-weight="bold" letter-spacing="1" text-anchor="middle">CLUB MEMBERS</text>
</svg>
